<svg viewBox="0 0 38 36" fill="none" xmlns="http://www.w3.org/2000/svg"><path fill="#4BAADD" d="M15.312 1.43951C17.4362 -0.153584 20.3568 -0.153584 22.4809 1.43951L34.927 10.7741C36.4313 11.9023 37.3166 13.6729 37.3166 15.5533V29.6174C37.3166 32.9169 34.642 35.5915 31.3425 35.5915H23.8749V25.6346C23.8749 24.5348 22.9834 23.6433 21.8835 23.6433H15.9094C14.8096 23.6433 13.9181 24.5348 13.9181 25.6346V35.5915H6.45043C3.15103 35.5915 0.476318 32.9169 0.476318 29.6174V15.5533C0.476318 13.6729 1.36164 11.9023 2.86596 10.7741L15.312 1.43951ZM8.34223 13.1886C8.12226 13.1886 7.94395 13.3668 7.94395 13.5869V18.7644C7.94395 18.9845 8.12226 19.1627 8.34223 19.1627H13.5198C13.7398 19.1627 13.9181 18.9845 13.9181 18.7644V13.5869C13.9181 13.3668 13.7398 13.1886 13.5198 13.1886H8.34223ZM24.2732 13.1886C24.0531 13.1886 23.8749 13.3668 23.8749 13.5869V18.7644C23.8749 18.9845 24.0531 19.1627 24.2732 19.1627H29.4507C29.6708 19.1627 29.849 18.9845 29.849 18.7644V13.5869C29.849 13.3668 29.6708 13.1886 29.4507 13.1886H24.2732Z"/></svg>