<svg viewBox="0 0 64 51" fill="none" xmlns="http://www.w3.org/2000/svg"><path fill="#333333" d="M24.7021 0.963829C22.7475 1.50319 21.3532 2.75406 20.6436 4.59019C20.4444 5.09512 20.3572 5.64596 20.3199 6.78207L20.2452 8.30835H18.1661H16.0746L16.0248 7.287C15.9626 5.71482 16.1244 5.78367 12.6759 5.78367C9.27723 5.78367 9.45152 5.70334 9.45152 7.287V8.27392L8.08208 8.35426C4.72073 8.53787 2.26819 9.98382 0.848953 12.6118C-0.059856 14.2987 -0.0225076 13.5184 0.0148407 29.573L0.0521891 43.9408L0.338526 44.7441C0.811605 46.0294 1.43408 46.9589 2.46738 47.8999C3.56293 48.8983 4.72073 49.518 6.16487 49.8508C7.11102 50.0803 7.64635 50.0803 31.8605 50.0803C56.0747 50.0803 56.61 50.0803 57.5562 49.8508C60.2826 49.2082 62.4488 47.3147 63.3825 44.7441L63.6688 43.9408L63.7062 29.573C63.7435 13.5184 63.7809 14.2987 62.8721 12.6118C61.4528 9.98382 59.0003 8.53787 55.639 8.35426L54.2695 8.27392V7.287C54.2695 5.70334 54.4438 5.78367 51.0451 5.78367C47.5966 5.78367 47.7585 5.71482 47.6962 7.287L47.6464 8.30835H45.5549H43.4759L43.4012 6.78207C43.3638 5.64596 43.2767 5.09512 43.0775 4.59019C42.3554 2.71963 40.9611 1.49171 38.9567 0.952351C38.2097 0.745789 37.6744 0.73431 31.7983 0.745789C26.0466 0.745789 25.3744 0.768738 24.7021 0.963829ZM38.4089 4.13115C38.9816 4.38362 39.6539 5.1066 39.8157 5.63449C39.8904 5.87548 39.9527 6.5755 39.9527 7.18372V8.30835H31.8605H23.7684V7.18372C23.7684 5.8181 23.9053 5.32464 24.4655 4.76233C25.2748 3.92459 25.0009 3.94754 31.8356 3.94754C37.2262 3.94754 38.0354 3.97049 38.4089 4.13115ZM34.3504 15.825C38.6455 16.525 42.2309 18.7972 44.5216 22.2629C47.385 26.6008 47.2729 32.3158 44.2353 36.5962C41.9944 39.7521 38.7575 41.7948 34.7239 42.5751C33.2798 42.862 30.4413 42.862 28.9971 42.5751C22.4861 41.3128 17.7428 36.4356 17.1826 30.4222C16.5228 23.399 21.7391 17.0988 29.2586 15.8365C30.5284 15.6184 33.0681 15.6184 34.3504 15.825Z"/><path fill="#333333" d="M27.7024 19.2218L27.3787 19.4514V22.2629V25.063H24.4033C21.5897 25.063 21.4154 25.0745 21.1042 25.304L20.7805 25.5335V29.1484C20.7805 31.2944 20.8303 32.8551 20.905 32.9813C21.1291 33.3601 21.7267 33.4404 24.59 33.4404H27.3787V36.1946C27.3787 38.7996 27.3912 38.9602 27.6277 39.1783C27.8643 39.3963 28.0385 39.4078 31.8356 39.4078C35.06 39.4078 35.8443 39.3734 36.0435 39.2471C36.2676 39.098 36.2801 38.8799 36.3423 36.229L36.4046 33.383L39.492 33.3256C42.3679 33.2682 42.6044 33.2568 42.7662 33.0502C42.9032 32.8666 42.9405 32.1436 42.9405 29.2288V25.6254L42.6293 25.3499L42.3305 25.063H39.3302H36.3423V22.2629V19.4514L36.0186 19.2218C35.695 18.9923 35.5456 18.9809 31.8605 18.9809C28.1755 18.9809 28.0261 18.9923 27.7024 19.2218Z"/></svg>