<svg viewBox="0 0 56 34" fill="none" xmlns="http://www.w3.org/2000/svg">
<path d="M51.52 0H4.48C2.00576 0 0 2.02964 0 4.53333V29.4667C0 31.9704 2.00576 34 4.48 34H51.52C53.9942 34 56 31.9704 56 29.4667V4.53333C56 2.02964 53.9942 0 51.52 0Z" fill="#F2F2F2"/>
<path d="M21.1046 16.4398C21.1046 12.9946 16.8804 10.2 11.6725 10.2C6.46465 10.2 2.23999 13.007 2.23999 16.4398V16.8101C2.23999 20.4593 5.93489 23.4197 11.6725 23.4197C17.4102 23.4197 21.1052 20.4593 21.1052 16.8101L21.1046 16.4398Z" fill="#28316B"/>
<path d="M20.7507 16.4392C20.7507 19.6801 16.6904 22.3088 11.684 22.3088C6.67762 22.3088 2.60498 19.6801 2.60498 16.4392C2.60498 13.1983 6.66525 10.5696 11.6717 10.5696C16.6904 10.5571 20.7507 13.1983 20.7507 16.4392Z" fill="#50B4E9"/>
<path d="M8.66692 14.5808C8.66692 14.5934 8.56591 14.683 8.6293 14.7596C8.76792 14.951 9.20956 15.0533 9.66357 14.951C9.92845 14.8875 10.2691 14.6194 10.5968 14.3514C10.9498 14.0578 11.3157 13.7773 11.6687 13.6626C12.047 13.5347 12.2865 13.5989 12.4505 13.6369C12.6272 13.6881 12.8287 13.8028 13.1564 14.0583C13.7743 14.5302 16.2712 16.7381 16.6999 17.1208C17.0528 16.9676 18.5916 16.2912 20.6848 15.8193C20.5081 14.6836 19.8274 13.65 18.7931 12.8078C17.3682 13.4206 15.6027 13.7392 13.8877 12.8845C13.8754 12.8845 12.9545 12.4381 12.0341 12.4632C10.6721 12.4887 10.0794 13.0884 9.44919 13.7267L8.66692 14.5808Z" fill="white"/>
<path d="M16.6022 17.3551C16.577 17.3296 13.6767 14.765 13.0083 14.2545C12.6301 13.9609 12.4157 13.8973 12.1884 13.8586C12.075 13.8462 11.9112 13.8712 11.7972 13.8967C11.4947 13.9859 11.0913 14.2539 10.7383 14.535C10.3724 14.8285 10.0194 15.1092 9.70401 15.1858C9.28762 15.275 8.796 15.1733 8.55637 15.0069C8.46825 14.9433 8.3925 14.8666 8.36725 14.8025C8.27913 14.5981 8.443 14.4454 8.46825 14.4197L9.27525 13.5395L9.5525 13.259C9.30051 13.2971 9.06087 13.3612 8.82125 13.4248C8.53113 13.514 8.25387 13.5906 7.96375 13.5906C7.85037 13.5906 7.21962 13.4885 7.09387 13.4504C6.37499 13.259 5.74475 13.0545 4.78624 12.6082C3.65148 13.4634 2.88209 14.535 2.66772 15.7218C2.83159 15.7599 3.09647 15.8496 3.20985 15.8752C5.79473 16.4623 6.58937 17.049 6.74087 17.1767C6.90475 16.9978 7.13201 16.8832 7.384 16.8832C7.67414 16.8832 7.92613 17.0235 8.07764 17.2534C8.22914 17.1386 8.43063 17.0365 8.69551 17.0365C8.80889 17.0365 8.93514 17.062 9.06139 17.1001C9.35153 17.2023 9.50251 17.3936 9.57827 17.572C9.67927 17.5209 9.79265 17.4954 9.93127 17.4954C10.0699 17.4954 10.2214 17.5209 10.36 17.5845C10.8393 17.7889 10.915 18.2608 10.8645 18.6181H10.9655C11.5329 18.6181 11.9869 19.0775 11.9869 19.6515C11.9869 19.8305 11.9365 19.9963 11.8606 20.1365C12.0122 20.2257 12.4028 20.4171 12.7434 20.379C13.0206 20.341 13.1216 20.2513 13.1598 20.2002C13.185 20.1621 13.2104 20.1235 13.185 20.0855L12.4538 19.2688C12.4538 19.2688 12.3276 19.1541 12.3781 19.1155C12.4157 19.0645 12.4914 19.1411 12.5419 19.1792C12.9078 19.4983 13.3618 19.9702 13.3618 19.9702C13.3742 19.9702 13.3994 20.0338 13.5638 20.0594C13.7025 20.0849 13.9674 20.0719 14.1441 19.9191C14.1946 19.8811 14.2322 19.8299 14.2703 19.7914L14.258 19.8039C14.4471 19.5613 14.2327 19.3189 14.2327 19.3189L13.4128 18.349C13.4128 18.349 13.2865 18.2342 13.337 18.1832C13.3747 18.1451 13.4505 18.2087 13.501 18.2468C13.7659 18.4762 14.1564 18.8595 14.51 19.2167C14.5857 19.2678 14.9011 19.4717 15.3298 19.1912C15.5818 19.0253 15.6324 18.8083 15.6324 18.6551C15.6199 18.4507 15.4556 18.2979 15.4556 18.2979L14.2956 17.1241C14.2956 17.1241 14.1693 17.0219 14.2198 16.9583C14.2574 16.9072 14.3332 16.9838 14.3837 17.0219C14.7496 17.341 15.7581 18.2598 15.7581 18.2598C15.7704 18.2723 16.1239 18.5148 16.5399 18.2473C16.6913 18.1451 16.7918 18.0048 16.8048 17.826C16.8171 17.5323 16.6027 17.3541 16.6027 17.3541" fill="white"/>
<path d="M10.9795 18.8574C10.8028 18.8574 10.6013 18.9595 10.576 18.9465C10.5637 18.934 10.5884 18.8699 10.6013 18.8188C10.6136 18.7807 10.8533 18.0533 10.2735 17.8108C9.8324 17.6195 9.56752 17.8364 9.46651 17.9385C9.44127 17.9641 9.4289 17.9641 9.4289 17.926C9.41652 17.7983 9.36602 17.4411 8.98778 17.3264C8.44565 17.1606 8.09265 17.5433 8.00401 17.6835C7.96639 17.3645 7.70151 17.1219 7.38613 17.1219C7.03314 17.1219 6.75537 17.4024 6.75537 17.7602C6.75537 18.1179 7.03263 18.3985 7.38613 18.3985C7.55001 18.3985 7.71389 18.3348 7.82726 18.2196V18.2452C7.80201 18.3985 7.7515 18.9851 8.34414 19.2151C8.58376 19.3043 8.78525 19.2406 8.94964 19.1129C9.00014 19.0748 9.01251 19.0874 9.00014 19.1385C8.9749 19.2917 9.00014 19.5978 9.44127 19.7892C9.76901 19.9296 9.97103 19.7892 10.0968 19.6615C10.1473 19.6104 10.1725 19.6234 10.1725 19.6995C10.1849 20.1334 10.5384 20.4651 10.9672 20.4651C11.3959 20.4651 11.7618 20.1078 11.7618 19.661C11.7741 19.2145 11.4207 18.8574 10.9795 18.8574Z" fill="white"/>
<path d="M10.9793 20.4076C10.5758 20.4076 10.2605 20.0884 10.2481 19.6931C10.2481 19.6551 10.2481 19.5654 10.1723 19.5654C10.1471 19.5654 10.1095 19.5779 10.0842 19.6165C9.98321 19.7057 9.86983 19.7823 9.70596 19.7823C9.63021 19.7823 9.55445 19.7698 9.46633 19.7312C9.04995 19.5524 9.03758 19.2593 9.06283 19.144C9.06283 19.1185 9.06283 19.0805 9.05046 19.0548L9.02521 19.0293H8.99996C8.97471 19.0293 8.94946 19.0418 8.92421 19.0548C8.79795 19.144 8.68458 19.1827 8.57121 19.1827C8.50834 19.1827 8.44495 19.1701 8.3692 19.1446C7.81419 18.9277 7.8647 18.3916 7.88994 18.2388C7.88994 18.2008 7.88994 18.1877 7.8647 18.1621L7.81419 18.1366L7.77658 18.1747C7.6632 18.2768 7.52458 18.3405 7.37307 18.3405C7.05769 18.3405 6.79281 18.0855 6.79281 17.7533C6.79281 17.4211 7.05769 17.1661 7.37307 17.1661C7.6632 17.1661 7.90282 17.3831 7.94044 17.6767L7.9657 17.8299L8.05382 17.7022C8.06619 17.6897 8.29345 17.332 8.7222 17.332C8.79795 17.332 8.88607 17.3445 8.97419 17.37C9.31483 17.4723 9.3777 17.7914 9.3777 17.9186C9.39006 17.9953 9.44056 17.9953 9.45345 17.9953C9.4787 17.9953 9.50395 17.9827 9.51632 17.9572C9.57919 17.8936 9.71833 17.7784 9.94508 17.7784C10.0461 17.7784 10.1471 17.8039 10.2605 17.855C10.8026 18.0845 10.5506 18.7864 10.5506 18.7994C10.5001 18.9141 10.5001 18.9652 10.5506 18.9907L10.5758 19.0033H10.5882C10.6134 19.0033 10.6387 18.9907 10.6892 18.9777C10.765 18.9522 10.8783 18.9141 10.9793 18.9141C11.3829 18.9141 11.7235 19.2587 11.7235 19.6671C11.7111 20.0754 11.3829 20.4076 10.9793 20.4076ZM16.717 17.0509C15.8219 16.2598 13.7539 14.4353 13.1988 14.0139C12.8834 13.7715 12.6568 13.6436 12.4676 13.5801C12.3794 13.5544 12.2532 13.5289 12.1017 13.5289C11.9631 13.5289 11.8116 13.5544 11.6477 13.6056C11.2818 13.7204 10.9288 14.0139 10.5758 14.2944L10.5635 14.307C10.2357 14.562 9.90797 14.843 9.64309 14.8942C9.52971 14.9197 9.41635 14.9322 9.30245 14.9322C9.01233 14.9322 8.76033 14.843 8.67169 14.7278C8.65933 14.7023 8.67169 14.6767 8.69695 14.6256V14.6131L9.4787 13.7584C10.0966 13.1332 10.6768 12.546 12.0131 12.5079H12.0759C12.9082 12.5079 13.7405 12.8906 13.8415 12.9293C14.6232 13.312 15.4302 13.5165 16.2502 13.5165C17.07 13.5165 17.9651 13.2996 18.8855 12.8782C18.7845 12.789 18.6712 12.7124 18.5701 12.6232C17.7755 12.9804 17.0066 13.1592 16.2625 13.1592C15.5184 13.1592 14.7495 12.9678 14.0177 12.6106C13.9801 12.5981 13.0592 12.1513 12.1012 12.1513H12.0254C10.9031 12.1768 10.2599 12.5851 9.84406 12.9423C9.42768 12.9548 9.07468 13.057 8.74693 13.1467C8.45681 13.2234 8.21717 13.3 7.97755 13.3C7.87655 13.3 7.7003 13.2875 7.68742 13.2875C7.41018 13.275 6.02291 12.9303 4.91341 12.5089C4.80004 12.5857 4.68667 12.6747 4.58566 12.7639C5.73329 13.2359 7.1453 13.6061 7.58693 13.6442C7.71318 13.6567 7.83893 13.6697 7.97806 13.6697C8.2682 13.6697 8.55833 13.5806 8.84794 13.5039C9.01181 13.4528 9.20094 13.4017 9.39006 13.3636L9.23856 13.5169L8.44392 14.3972C8.38105 14.4608 8.24191 14.6396 8.33055 14.8435C8.36817 14.9327 8.44392 15.0094 8.54493 15.086C8.73405 15.2138 9.07468 15.3029 9.38954 15.3029C9.5158 15.3029 9.62918 15.2905 9.73018 15.2649C10.0708 15.1883 10.4109 14.9076 10.7892 14.6016C11.0917 14.3591 11.5081 14.0656 11.8358 13.9764C11.9239 13.9508 12.0378 13.9383 12.126 13.9383H12.2017C12.4161 13.9638 12.6181 14.0405 12.9963 14.321C13.6519 14.8186 16.565 17.3961 16.5902 17.4217C16.5902 17.4217 16.7794 17.5875 16.7669 17.8556C16.7546 18.0088 16.6789 18.1361 16.5402 18.2258C16.414 18.3024 16.2882 18.3405 16.162 18.3405C15.9728 18.3405 15.8342 18.2513 15.8213 18.2383C15.8084 18.2252 14.8123 17.3069 14.447 17.0003C14.3841 16.9492 14.3336 16.9111 14.2702 16.9111C14.2449 16.9111 14.2074 16.9236 14.1945 16.9492C14.1316 17.0258 14.2068 17.115 14.2825 17.1916L15.4426 18.3786C15.4426 18.3786 15.5812 18.5188 15.6065 18.6977C15.6188 18.889 15.5184 19.0548 15.3292 19.1827C15.1906 19.2718 15.052 19.3229 14.9129 19.3229C14.736 19.3229 14.6104 19.2463 14.5851 19.2207L14.4212 19.0548C14.1187 18.7487 13.8033 18.4422 13.5766 18.2383C13.4885 18.1747 13.4251 18.1236 13.3622 18.1236C13.3369 18.1236 13.3117 18.1361 13.2864 18.1491C13.2612 18.1747 13.2359 18.2258 13.3117 18.3149C13.3369 18.353 13.3746 18.3786 13.3746 18.3786L14.2192 19.3485C14.2316 19.361 14.396 19.5654 14.2316 19.7567L14.2063 19.7948L14.1306 19.8715C13.9919 19.9862 13.79 19.9993 13.7141 19.9993C13.6765 19.9993 13.6384 19.9993 13.6008 19.9868C13.5127 19.9742 13.4621 19.9487 13.4369 19.9101L13.4245 19.8976C13.3741 19.8465 12.9453 19.4126 12.5924 19.1065C12.5418 19.0684 12.4913 19.0173 12.4284 19.0173C12.4032 19.0173 12.378 19.0298 12.3527 19.0554C12.277 19.132 12.3903 19.2468 12.4284 19.2978L13.1473 20.1019C13.1473 20.1145 13.135 20.1275 13.1221 20.153C13.0968 20.1911 13.0087 20.2809 12.7438 20.3064H12.6429C12.3656 20.3064 12.0878 20.1787 11.9368 20.0895C11.9996 19.9492 12.0378 19.7834 12.0378 19.63C12.0378 19.0304 11.5586 18.5329 10.9536 18.5329H10.9159C10.9412 18.2523 10.9036 17.7419 10.3738 17.5119C10.2223 17.4482 10.0713 17.4097 9.91982 17.4097C9.80645 17.4097 9.69308 17.4352 9.59207 17.4733C9.4787 17.2564 9.30194 17.103 9.06231 17.0138C8.94895 17.0014 8.82269 16.9759 8.68407 16.9759C8.46969 16.9759 8.25531 17.0394 8.07855 17.1672C7.90179 16.9502 7.63744 16.8225 7.37256 16.8225C7.13292 16.8225 6.90618 16.9247 6.72942 17.0906C6.50268 16.9117 5.60705 16.3376 3.22365 15.7889C3.11028 15.7634 2.8454 15.6868 2.68153 15.6357C2.65627 15.7634 2.63103 15.9037 2.61865 16.0315C2.61865 16.0315 3.05978 16.1337 3.14841 16.1592C5.59467 16.7078 6.40168 17.2819 6.5403 17.3841C6.4898 17.4989 6.46455 17.6136 6.46455 17.7413C6.46455 18.2519 6.88094 18.6727 7.38492 18.6727C7.43542 18.6727 7.49829 18.6727 7.5488 18.6601C7.62455 19.0304 7.86418 19.3234 8.24243 19.4642C8.3558 19.5023 8.45681 19.5279 8.57017 19.5279C8.64593 19.5279 8.7088 19.5153 8.78455 19.5023C8.84742 19.6811 9.0113 19.898 9.35193 20.0384C9.47818 20.0895 9.59156 20.115 9.71782 20.115C9.81882 20.115 9.90694 20.1025 9.99506 20.064C10.1589 20.4722 10.5501 20.7402 10.9912 20.7402C11.2813 20.7402 11.5586 20.6255 11.7605 20.4086C11.9374 20.5108 12.3027 20.6891 12.6686 20.6891C12.7191 20.6891 12.7567 20.6891 12.8072 20.6766C13.1731 20.6255 13.3494 20.4852 13.4251 20.3705C13.4375 20.345 13.4504 20.3325 13.4627 20.307C13.5508 20.3325 13.6394 20.3581 13.7528 20.3581C13.9548 20.3581 14.144 20.2944 14.3455 20.1411C14.5345 20.0008 14.6732 19.7964 14.6985 19.6306V19.6181C14.7613 19.6306 14.8247 19.6436 14.9004 19.6436C15.1148 19.6436 15.3169 19.58 15.5059 19.4522C15.8843 19.1972 15.9471 18.8782 15.9471 18.6611C16.0099 18.6737 16.0857 18.6867 16.1491 18.6867C16.3382 18.6867 16.5402 18.6232 16.7165 18.5079C16.9561 18.3546 17.0948 18.1251 17.1076 17.857C17.12 17.6782 17.0823 17.4869 16.9814 17.3341C17.6121 17.0535 19.0494 16.53 20.752 16.1347C20.7397 16.007 20.7268 15.8667 20.7015 15.7389C18.6335 16.2109 17.0952 16.8747 16.7165 17.053" fill="#28316B"/>
<path d="M52.4101 14.9369C52.2461 15.1538 52.0065 15.2686 51.704 15.2686C51.4015 15.2686 51.1619 15.1538 50.998 14.9369C50.8341 14.72 50.7461 14.4008 50.7461 13.9926C50.7461 13.5842 50.8341 13.2651 50.998 13.0482C51.1619 12.8313 51.4015 12.7166 51.704 12.7166C52.0065 12.7166 52.2461 12.8313 52.4101 13.0482C52.5739 13.2651 52.6621 13.5842 52.6621 13.9926C52.6621 14.4008 52.5739 14.72 52.4101 14.9369ZM53.2547 12.4616C52.9141 12.0276 52.3972 11.8107 51.7035 11.8107C51.0098 11.8107 50.493 12.0276 50.1524 12.4616C49.8118 12.8954 49.6355 13.4059 49.6355 13.9926C49.6355 14.5792 49.7994 15.1027 50.1524 15.5235C50.493 15.9449 51.0098 16.1618 51.7035 16.1618C52.3972 16.1618 52.9141 15.9449 53.2547 15.5235C53.5953 15.1022 53.7591 14.5922 53.7591 13.9926C53.7715 13.4054 53.5953 12.8954 53.2547 12.4616Z" fill="#28316B"/>
<path d="M44.0168 14.4396C44.0045 14.7968 43.9034 15.0392 43.7144 15.1795C43.5252 15.3198 43.3108 15.384 43.0712 15.384C42.9197 15.384 42.8063 15.3459 42.7054 15.2561C42.6043 15.1795 42.5538 15.0392 42.5538 14.8604C42.5538 14.6559 42.642 14.5032 42.8058 14.401C42.9069 14.3499 43.0707 14.2988 43.2974 14.2607L43.5371 14.2096C43.6504 14.184 43.7514 14.1585 43.8143 14.133C43.8901 14.1074 43.9529 14.0693 44.0163 14.0308L44.0168 14.4396ZM44.559 12.1045C44.2184 11.9256 43.8148 11.8364 43.3737 11.8364C42.6929 11.8364 42.2008 12.0153 41.9236 12.3725C41.7468 12.602 41.6463 12.8955 41.6211 13.2527H42.6424C42.6677 13.0994 42.7182 12.9721 42.794 12.8825C42.895 12.7548 43.084 12.6911 43.336 12.6911C43.5628 12.6911 43.7396 12.7167 43.8529 12.7933C43.9664 12.857 44.0298 12.9721 44.0298 13.1381C44.0298 13.2782 43.9539 13.3805 43.803 13.4441C43.7148 13.4821 43.5763 13.5077 43.3742 13.5332L43.0083 13.5713C42.5919 13.6224 42.2894 13.7116 42.075 13.8394C41.6839 14.0689 41.4949 14.4265 41.4949 14.9365C41.4949 15.3193 41.6082 15.6254 41.8607 15.8423C42.1003 16.0592 42.4029 16.1484 42.7688 16.1614C45.0763 16.2637 45.0511 14.9235 45.0763 14.6559V13.1119C45.0763 12.6145 44.899 12.2828 44.559 12.1045Z" fill="#28316B"/>
<path d="M39.284 12.751C39.5489 12.751 39.738 12.8276 39.8643 12.9936C39.9525 13.1213 40.0029 13.2486 40.0282 13.4018H41.163C41.1 12.8146 40.8981 12.4194 40.5574 12.1895C40.2168 11.9595 39.7756 11.8447 39.2459 11.8447C38.6152 11.8447 38.1235 12.0361 37.7705 12.4319C37.4176 12.8276 37.2407 13.3633 37.2407 14.0651C37.2407 14.6904 37.4046 15.1878 37.72 15.5837C38.0478 15.9794 38.5522 16.1707 39.233 16.1707C39.9137 16.1707 40.4312 15.9414 40.7842 15.4689C40.9985 15.1753 41.1248 14.8692 41.1501 14.5501H40.0153C39.99 14.767 39.9272 14.9458 39.8132 15.0731C39.6999 15.2008 39.5232 15.2776 39.2583 15.2776C38.8924 15.2776 38.6404 15.1116 38.5017 14.767C38.426 14.5882 38.3884 14.3456 38.3884 14.0527C38.3884 13.7335 38.426 13.491 38.5017 13.2997C38.6533 12.9294 38.9058 12.751 39.284 12.751Z" fill="#28316B"/>
<path d="M36.9399 11.8515C34.5946 11.8515 34.7332 13.9442 34.7332 13.9442V16.0749H35.7922V14.0714C35.7922 13.7397 35.8298 13.4973 35.9184 13.344C36.07 13.0634 36.3472 12.9226 36.776 12.9226H36.9022C36.9527 12.9226 37.0156 12.9352 37.079 12.9352V11.838C37.0285 11.838 37.0033 11.838 36.9908 11.8254C36.9785 11.851 36.9527 11.8515 36.9399 11.8515Z" fill="#28316B"/>
<path d="M31.6104 12.9538C31.7618 12.8004 31.9633 12.7244 32.241 12.7244C32.493 12.7244 32.6951 12.801 32.8718 12.9413C33.0357 13.0945 33.1367 13.2984 33.1491 13.5921H31.3331C31.3584 13.324 31.4593 13.1201 31.6104 12.9538ZM33.0352 14.9573C32.9847 15.0209 32.9471 15.072 32.8966 15.1231C32.745 15.2508 32.5435 15.2889 32.304 15.2889C32.0772 15.2889 31.9004 15.2508 31.7366 15.1486C31.4717 14.9828 31.3202 14.7023 31.3079 14.2939H34.2462C34.2462 13.9367 34.2339 13.6687 34.2087 13.4774C34.1581 13.1582 34.0571 12.8776 33.8933 12.6352C33.7041 12.3546 33.4768 12.1633 33.1995 12.0354C32.9223 11.9077 32.6069 11.8441 32.2539 11.8441C31.6613 11.8441 31.1821 12.0354 30.8039 12.4057C30.4379 12.7885 30.2488 13.3245 30.2488 14.0389C30.2488 14.7919 30.4508 15.3405 30.8667 15.6722C31.2831 16.0038 31.7495 16.1696 32.2915 16.1696C32.9471 16.1696 33.4515 15.9653 33.8046 15.57C34.0066 15.3655 34.1199 15.1486 34.1705 14.9447H33.0357L33.0352 14.9573Z" fill="#28316B"/>
<path d="M29.8176 16.0691H28.8467V13.5937C28.8467 13.3642 28.7709 12.8281 28.1278 12.8281C27.6991 12.8281 27.3966 13.1342 27.3966 13.5937V16.0691H26.4257V13.5937C26.4257 13.3642 26.3628 12.8281 25.7197 12.8281C25.291 12.8281 24.9884 13.1342 24.9884 13.5937V16.0691H24.0046V13.6192C24.0046 12.5981 24.6731 11.8327 25.7068 11.8327C26.2237 11.8327 26.6401 12.0496 26.9173 12.4068C27.2074 12.0621 27.6362 11.8327 28.1278 11.8327C29.1868 11.8327 29.8176 12.5726 29.8176 13.6192V16.0691Z" fill="#28316B"/>
<path d="M48.0585 14.951C47.9071 15.1804 47.6803 15.2827 47.3778 15.2827C47.0752 15.2827 46.8609 15.168 46.7094 14.938C46.5579 14.7085 46.4951 14.3763 46.4951 14.0066C46.4951 13.662 46.5708 13.3683 46.7094 13.1264C46.848 12.897 47.0752 12.7693 47.3902 12.7693C47.5921 12.7693 47.7684 12.8328 47.9199 12.9606C48.1719 13.1775 48.2982 13.5603 48.2982 14.0578C48.2859 14.428 48.21 14.7211 48.0585 14.951ZM49.3319 10.5488C49.3319 10.5488 48.26 10.4341 48.26 11.3018V12.4501C48.1466 12.2587 47.9828 12.1054 47.7936 12.0037C47.6046 11.889 47.3902 11.8379 47.1382 11.8379C46.6084 11.8379 46.1797 12.0423 45.8647 12.4375C45.5494 12.8334 45.3855 13.42 45.3855 14.1094C45.3855 14.7091 45.5494 15.2065 45.8647 15.5898C46.1926 15.9725 46.8232 16.1384 47.3778 16.1384C49.3324 16.1384 49.3072 14.441 49.3072 14.441L49.3319 10.5488Z" fill="#28316B"/>
<path d="M26.8481 19.9884C26.8481 19.5801 26.7723 19.274 26.6085 19.0571C26.4569 18.8402 26.2302 18.7254 25.94 18.7254C25.65 18.7254 25.4356 18.8402 25.2846 19.0571C25.1331 19.2615 25.0702 19.5676 25.0702 19.9884C25.0702 20.3842 25.146 20.6772 25.3098 20.8817C25.4613 21.0986 25.688 21.2133 25.9782 21.2133C26.2431 21.2133 26.4575 21.0986 26.6213 20.8817C26.7729 20.6523 26.8481 20.3586 26.8481 19.9884ZM25.0702 22.8976C25.0702 23.051 25.0073 23.1783 24.8934 23.2804C24.7925 23.3696 24.6538 23.4207 24.5152 23.4207H23.9983V19.6818C23.9983 18.9543 24.238 18.495 24.6414 18.1889C24.9316 17.9719 25.3726 17.755 26.2431 17.7931C26.697 17.8186 27.1259 18.01 27.416 18.3671C27.769 18.8011 27.9205 19.286 27.9205 19.9238C27.9205 20.5615 27.769 21.1106 27.4542 21.5189C27.1388 21.9147 26.7352 22.1061 26.256 22.1061C25.9911 22.1061 25.7643 22.055 25.5753 21.9658C25.3609 21.8636 25.1969 21.6978 25.0707 21.4809L25.0702 22.8976Z" fill="#50B4E9"/>
<path d="M33.2182 19.9889C33.2182 20.7034 33.4203 21.0992 33.8361 21.1758C34.2397 21.2525 34.5422 21.1633 34.7441 20.8822C34.8322 20.7675 34.908 20.5886 34.9461 20.3462C34.9838 20.1036 34.9838 19.8612 34.9585 19.6187C34.9208 19.3763 34.8322 19.1724 34.7065 18.9805C34.5679 18.7891 34.3788 18.6999 34.1263 18.6999C33.7733 18.6999 33.546 18.8276 33.4203 19.0956C33.2816 19.3637 33.2182 19.6573 33.2182 19.9889ZM34.9585 21.7755V21.5075C34.7694 21.801 34.5297 21.9794 34.2143 22.056C33.8989 22.1326 33.5965 22.1071 33.2812 21.9794C32.9786 21.8516 32.7138 21.6222 32.4865 21.2906C32.2721 20.9458 32.1587 20.512 32.1587 19.9634C32.1587 19.3251 32.3102 18.8021 32.5999 18.3938C32.8899 17.998 33.3563 17.8066 33.9995 17.7941C34.6302 17.7815 35.0085 17.9219 35.3614 18.2025C35.7527 18.5085 35.9922 18.9679 35.9922 19.6954V21.8902C35.9922 22.5921 35.513 23.8806 34 23.7789C33.0668 23.7153 32.537 23.3196 32.2474 22.4393H33.3697C33.4579 22.5796 33.5718 22.6943 33.748 22.7709C33.9118 22.8477 34.0887 22.8732 34.2525 22.8346C34.4164 22.796 34.5802 22.6943 34.7189 22.5285C34.8704 22.3627 34.9456 22.1071 34.9585 21.7755Z" fill="#50B4E9"/>
<path d="M30.7232 20.4227C30.7108 20.7799 30.6097 21.0224 30.4207 21.1626C30.2315 21.3029 30.0171 21.3671 29.7776 21.3671C29.626 21.3671 29.5127 21.329 29.3992 21.2393C29.2983 21.1626 29.2478 21.0224 29.2478 20.8435C29.2478 20.6391 29.3358 20.4864 29.4998 20.3841C29.6007 20.333 29.7647 20.2819 29.9914 20.2438L30.2311 20.1927C30.3573 20.1672 30.4454 20.1416 30.5083 20.1161C30.584 20.0905 30.6469 20.0525 30.7103 20.0139V20.4222L30.7232 20.4227ZM31.2653 18.0875C30.9247 17.9087 30.5211 17.8195 30.08 17.8195C29.3992 17.8195 28.92 17.9985 28.6299 18.3556C28.4532 18.5851 28.3526 18.8786 28.3274 19.2358H29.3487C29.374 19.0825 29.4245 18.9553 29.5003 18.8656C29.6013 18.7379 29.7905 18.6743 30.0425 18.6743C30.2691 18.6743 30.4459 18.6998 30.5592 18.7765C30.6727 18.8401 30.7361 18.9553 30.7361 19.1211C30.7361 19.2615 30.6602 19.3636 30.5093 19.4273C30.4211 19.4653 30.2826 19.4908 30.0805 19.5165L29.7146 19.5544C29.2982 19.6055 28.9958 19.6947 28.7814 19.8225C28.3902 20.052 28.2012 20.4096 28.2012 20.9196C28.2012 21.3024 28.3274 21.6085 28.567 21.8129C28.8066 22.0298 29.1092 22.119 29.4751 22.1321C31.7827 22.2343 31.7574 20.8941 31.7827 20.6266V19.0825C31.7827 18.5975 31.6053 18.2664 31.2653 18.0875Z" fill="#50B4E9"/>
<path d="M39.1775 20.903C39.0137 21.1199 38.7741 21.2346 38.4716 21.2346C38.1691 21.2346 37.9294 21.1199 37.7656 20.903C37.6017 20.6861 37.5136 20.3669 37.5136 19.9586C37.5136 19.5502 37.6017 19.2312 37.7656 19.0142C37.9294 18.7972 38.1691 18.6825 38.4716 18.6825C38.7741 18.6825 39.0137 18.7972 39.1775 19.0142C39.3415 19.2312 39.4295 19.5502 39.4295 19.9586C39.4295 20.3669 39.3415 20.6861 39.1775 20.903ZM40.0222 18.4275C39.6815 17.9937 39.1647 17.7768 38.471 17.7768C37.7774 17.7768 37.2605 17.9937 36.92 18.4275C36.5793 18.8614 36.4031 19.372 36.4031 19.9586C36.4031 20.5452 36.5669 21.0688 36.92 21.4896C37.2605 21.911 37.7774 22.1279 38.471 22.1279C39.1647 22.1279 39.6815 21.911 40.0222 21.4896C40.3628 21.0682 40.5267 20.5582 40.5267 19.9586C40.5391 19.3714 40.3628 18.8614 40.0222 18.4275Z" fill="#50B4E9"/>
</svg>
