<svg viewBox="0 0 42 44" fill="none" xmlns="http://www.w3.org/2000/svg"><path fill="#4BAADD" d="M21 24.75C27.5215 24.75 32.8125 19.207 32.8125 12.375C32.8125 5.54297 27.5215 0 21 0C14.4785 0 9.1875 5.54297 9.1875 12.375C9.1875 19.207 14.4785 24.75 21 24.75ZM31.5 27.5H26.9801C25.159 28.3766 23.1328 28.875 21 28.875C18.8672 28.875 16.8492 28.3766 15.0199 27.5H10.5C4.70039 27.5 0 32.4242 0 38.5V39.875C0 42.1523 1.76367 44 3.9375 44H38.0625C40.2363 44 42 42.1523 42 39.875V38.5C42 32.4242 37.2996 27.5 31.5 27.5Z"/></svg>